<svg xmlns="http://www.w3.org/2000/svg" xmlns:xlink="http://www.w3.org/1999/xlink" width="572" height="912" viewBox="0 0 572 912">
  <defs>
    <style>
      .cls-1 {
        fill: none;
      }

      .cls-2 {
        clip-path: url(#clip-iPad_1);
      }

      .cls-3 {
        fill: #e6f8ff;
      }

      .cls-4 {
        fill: #7bc7ff;
      }

      .cls-5 {
        fill: #379cf7;
      }

      .cls-6 {
        fill: #2481c6;
      }

      .cls-7 {
        fill: #0a4d7a;
      }

      .cls-8 {
        fill: #083954;
      }

      .cls-9 {
        fill: #fff;
      }

      .cls-10 {
        fill: #caedff;
      }

      .cls-11 {
        fill: #bae6f7;
        opacity: 0.85;
        mix-blend-mode: multiply;
        isolation: isolate;
      }

      .cls-12 {
        fill: #fbbe42;
      }

      .cls-13 {
        fill: #b1d7dd;
      }

      .cls-14 {
        clip-path: url(#clip-path);
      }

      .cls-15 {
        fill: #ffa683;
      }

      .cls-16 {
        fill: #e57c5c;
      }

      .cls-17 {
        fill: #004cba;
      }

      .cls-18, .cls-22 {
        fill: #ed7d5a;
      }

      .cls-19 {
        fill: #006cbc;
      }

      .cls-20 {
        fill: #57bfff;
      }

      .cls-21 {
        fill: #30afef;
      }

      .cls-22 {
        opacity: 0.58;
      }

      .cls-23 {
        fill: #0a85e0;
      }

      .cls-24 {
        clip-path: url(#clip-path-2);
      }

      .cls-25 {
        fill: #ff5a5a;
      }

      .cls-26 {
        clip-path: url(#clip-path-3);
      }
    </style>
    <clipPath id="clip-path">
      <circle id="Ellipse_2" data-name="Ellipse 2" class="cls-1" cx="20.371" cy="20.371" r="20.371" transform="translate(193.011 204.461) rotate(-13.166)"/>
    </clipPath>
    <clipPath id="clip-path-2">
      <circle id="Ellipse_4" data-name="Ellipse 4" class="cls-1" cx="20.371" cy="20.371" r="20.371" transform="translate(119.332 281.538) rotate(-45)"/>
    </clipPath>
    <clipPath id="clip-path-3">
      <circle id="Ellipse_6" data-name="Ellipse 6" class="cls-1" cx="20.371" cy="20.371" r="20.371" transform="matrix(0.522, -0.853, 0.853, 0.522, 189.476, 349.22)"/>
    </clipPath>
    <clipPath id="clip-iPad_1">
      <rect width="572" height="912"/>
    </clipPath>
  </defs>
  <g id="iPad_1" data-name="iPad – 1" class="cls-2">
    <rect class="cls-9" width="572" height="912"/>
    <g id="Group_68" data-name="Group 68" transform="translate(-17.721)">
      <path id="Path_1" data-name="Path 1" class="cls-3" d="M472.117,392.945c0-6.328-95.452-11.459-213.2-11.459s-213.2,5.131-213.2,11.459,95.452,11.458,213.2,11.458S472.117,399.273,472.117,392.945Z" transform="translate(45 469)"/>
      <g id="Group_1" data-name="Group 1" transform="translate(45 469)">
        <path id="Path_4" data-name="Path 4" class="cls-4" d="M198.162,173.821a46.175,46.175,0,0,1-14.453-3.959c-6.871-3.183-13.038-9.29-9.55-15.318,5.153-8.26-9.5-15.257-4.52-19.853,5.073-4.073,6.137-.7,4.185-9.81-1.609-9.3,4.79-11.532,8.39-19.851,4.113-8.368,13.566-2.107,11.227,8.814-1.839,11.268,2.509-.374,5.708,4.708,2.726,4.2-8.01,22.281-3.26,20.643,4.39-1.975,8.172.778,7.586,5.829C201.766,156.659,197.946,173.59,198.162,173.821Z"/>
        <path id="Path_5" data-name="Path 5" class="cls-5" d="M201.659,178.577a.149.149,0,0,1-.129-.061A79.155,79.155,0,0,1,185.6,148.69l-.026-.1-.081-.049a43.213,43.213,0,0,1-8.452-7.1c-.856-.883-1.7-1.786-2.551-2.694a.118.118,0,0,1-.028-.152.182.182,0,0,1,.221-.1.2.2,0,0,1,.06.044c.828.887,1.655,1.77,2.49,2.635a45.208,45.208,0,0,0,7.749,6.666l.466.3q-.073-.282-.146-.565a75.254,75.254,0,0,1-2.3-16.639l0-.157-.133-.061a.121.121,0,0,1-.057-.048,42.294,42.294,0,0,1-5.177-11.183.152.152,0,0,1,.033-.168.172.172,0,0,1,.2-.036.158.158,0,0,1,.06.093,42.1,42.1,0,0,0,4.648,10.338c.136.217.273.434.41.649q-.008-.395-.011-.789a84.544,84.544,0,0,1,1.724-17.8c.015-.074.047-.089.059-.094a.182.182,0,0,1,.23.216,82.54,82.54,0,0,0-1.391,23.877c.014.155.028.31.043.465l.319-.3a60.726,60.726,0,0,0,9.241-11.176c.03-.047.06-.068.12-.036a.227.227,0,0,1,.11.138.164.164,0,0,1-.023.14,60.685,60.685,0,0,1-9.616,11.554l-.106.087.014.136a73.32,73.32,0,0,0,2.114,11.529l.017.064.046.046a.152.152,0,0,1,.036.15l-.015.064.017.064a73.456,73.456,0,0,0,3.524,9.914q.124.284.25.567c.052-.2.106-.4.16-.593a58.191,58.191,0,0,1,6.6-15.274.141.141,0,0,1,.175-.066.184.184,0,0,1,.119.1.107.107,0,0,1-.018.1,58.325,58.325,0,0,0-6.814,16.1l-.022.085.037.08a80.963,80.963,0,0,0,11.87,18.648c.049.059.035.094.029.111a.2.2,0,0,1-.167.114Z"/>
      </g>
      <g id="Group_2" data-name="Group 2" transform="translate(45 469)">
        <path id="Path_6" data-name="Path 6" class="cls-4" d="M180.32,202.281a54.248,54.248,0,0,0-1.454-16.2c-1.975-7.907-6.959-15.509-13.506-12.687-9.036,4.272-13.455-12.624-18.842-7.966-4.886,4.837-1.735,6.51-10.4,2.985-8.912-3.184-12.206,3.37-21.036,5.957-8.965,3.132-4.388,14.3,6.8,13.481,11.444-.228-.795,2.648,3.681,6.89,3.681,3.594,23.37-5.169,20.945-.3-2.7,4.426-.622,8.934,4.467,9.089C162.754,203.5,180.129,202.012,180.32,202.281Z"/>
        <path id="Path_7" data-name="Path 7" class="cls-5" d="M184.423,206.794a.172.172,0,0,0-.038-.149c-5.8-7.434-15.141-16.331-26.753-21.823l-.091-.043-.035-.1a46.472,46.472,0,0,0-5.578-10.222c-.727-1.062-1.475-2.115-2.228-3.171a.11.11,0,0,0-.145-.054.2.2,0,0,0-.141.222.215.215,0,0,0,.033.071c.736,1.031,1.468,2.061,2.179,3.1a48.35,48.35,0,0,1,5.267,9.4q.109.274.217.55l-.533-.247a69.319,69.319,0,0,0-16.045-5.069l-.155-.029-.038-.153a.134.134,0,0,0-.037-.069,40.728,40.728,0,0,0-10.167-7.325.14.14,0,0,0-.171.01.2.2,0,0,0-.07.212.156.156,0,0,0,.081.079A40.5,40.5,0,0,1,139.4,178.6q.287.271.57.544-.387-.069-.777-.135a77.64,77.64,0,0,0-17.871-.912c-.076,0-.1.037-.1.049a.205.205,0,0,0,0,.181.165.165,0,0,0,.173.1,75.722,75.722,0,0,1,23.822,2.218l.453.119-.356.3a62.237,62.237,0,0,1-12.61,8.226.087.087,0,0,0-.056.123.237.237,0,0,0,.118.141.155.155,0,0,0,.142,0,62.29,62.29,0,0,0,13.048-8.571l.1-.1.132.036a67.94,67.94,0,0,1,11.029,4.077l.06.028.038.056a.141.141,0,0,0,.141.063l.066-.007.061.029a69.4,69.4,0,0,1,9.193,5.345c.173.118.346.238.518.357-.2.026-.409.053-.612.081a55.783,55.783,0,0,0-16.211,4.739.162.162,0,0,0-.095.179.2.2,0,0,0,.074.143.1.1,0,0,0,.1,0,55.77,55.77,0,0,1,17.061-4.842l.087-.011.074.052a80.378,80.378,0,0,1,16.4,15.707c.05.062.087.053.1.048a.221.221,0,0,0,.141-.162Z"/>
      </g>
      <g id="Group_3" data-name="Group 3" transform="translate(45 469)">
        <path id="Path_8" data-name="Path 8" class="cls-5" d="M175.184,186.017c-.092-.006,5.5-7.5,7.793-16.665,2.489-8.958,1.683-19.583-6.728-21.116-11.824-1.751-6.71-21.022-14.971-20.018-7.845,1.5-5.536,5.182-12.5-3.89-7.416-8.9-14.6-4.693-25.238-7.944-11.1-2.81-12.761,11.01-.688,17.51,12,7.244-2.345,2.05-.137,9.084,1.756,5.887,27.208,10.231,21.9,13.372-5.339,2.533-5.774,8.26-.584,11.73C156.267,175.736,175.14,185.631,175.184,186.017Z"/>
        <path id="Path_9" data-name="Path 9" class="cls-6" d="M176.85,193.07a.187.187,0,0,0,.046-.169,97.188,97.188,0,0,0-15.224-38.619l-.069-.1.019-.115a53.084,53.084,0,0,0,.08-13.554c-.144-1.5-.315-3.014-.49-4.528a.146.146,0,0,0-.12-.148.226.226,0,0,0-.274.124.243.243,0,0,0-.006.091c.171,1.48.34,2.956.483,4.425a55.47,55.47,0,0,1,.071,12.548q-.045.337-.092.674c-.136-.195-.273-.391-.411-.586a92.354,92.354,0,0,0-13.733-15.383l-.144-.13.049-.173a.149.149,0,0,0,0-.091A51.9,51.9,0,0,0,140.7,123.6a.185.185,0,0,0-.183-.1.214.214,0,0,0-.195.16.2.2,0,0,0,.039.13,51.668,51.668,0,0,1,5.972,12.57q.143.45.28.9-.363-.319-.728-.637a103.821,103.821,0,0,0-18.013-12.543c-.082-.045-.121-.027-.135-.019a.21.21,0,0,0-.1.175.213.213,0,0,0,.121.212,101.355,101.355,0,0,1,23.437,17.691c.134.136.267.273.4.41l-.54.057a74.532,74.532,0,0,1-17.8-.248c-.067-.009-.11,0-.129.083a.289.289,0,0,0,.042.214.2.2,0,0,0,.149.089,74.482,74.482,0,0,0,18.454.2l.166-.03.116.122a89.877,89.877,0,0,1,9.1,11.148l.047.067.007.079a.183.183,0,0,0,.11.153l.073.037.046.067A90.072,90.072,0,0,1,167.9,165.76q.166.342.332.685l-.682-.322a71.467,71.467,0,0,0-19.535-5.977.173.173,0,0,0-.2.111.227.227,0,0,0-.006.187.133.133,0,0,0,.11.065,71.565,71.565,0,0,1,20.475,6.433l.1.047.046.1a99.438,99.438,0,0,1,8,25.933c.015.094.059.109.08.116a.252.252,0,0,0,.24-.066Z"/>
      </g>
      <g id="Group_4" data-name="Group 4" transform="translate(45 469)">
        <g id="Group_7" data-name="Group 7">
          <g id="Group_6" data-name="Group 6">
            <rect id="Rectangle_2" data-name="Rectangle 2" class="cls-7" width="128.16" height="231.376" rx="16.658" transform="translate(168.023 157.719)"/>
          </g>
        </g>
        <path id="Path_10" data-name="Path 10" class="cls-8" d="M279.525,157.719H184.681a16.657,16.657,0,0,0-16.658,16.657V372.437a16.614,16.614,0,0,0,6.429,13.128l120.362-217.8A16.657,16.657,0,0,0,279.525,157.719Z"/>
        <path id="Path_11" data-name="Path 11" class="cls-9" d="M250.621,165.834H215.435a1.765,1.765,0,0,0-1.759,1.759h0a1.764,1.764,0,0,0,1.759,1.759h35.186a1.764,1.764,0,0,0,1.759-1.759h0A1.765,1.765,0,0,0,250.621,165.834Z"/>
      </g>
      <path id="Path_2" data-name="Path 2" class="cls-10" d="M279.525,163.96H265.608l-5.007,9.49a10.814,10.814,0,0,1-9.564,5.767H213.169a10.814,10.814,0,0,1-9.564-5.767l-5.007-9.49H184.681a10.428,10.428,0,0,0-10.416,10.416V372.437a10.428,10.428,0,0,0,10.416,10.416h94.844a10.428,10.428,0,0,0,10.416-10.416V174.376A10.427,10.427,0,0,0,279.525,163.96Z" transform="translate(45 469)"/>
      <path id="Path_3" data-name="Path 3" class="cls-11" d="M289.941,174.378v2.2L177.523,380a10.414,10.414,0,0,1-3.258-7.568V174.378a10.432,10.432,0,0,1,10.411-10.421H198.6l5,9.5a10.821,10.821,0,0,0,9.573,5.765h37.867a10.82,10.82,0,0,0,9.564-5.765l5-9.5h13.921A10.432,10.432,0,0,1,289.941,174.378Z" transform="translate(45 469)"/>
      <rect id="Rectangle_1" data-name="Rectangle 1" class="cls-9" width="158.65" height="50.237" rx="7.292" transform="translate(230.033 662.782)"/>
      <g id="Group_5" data-name="Group 5" transform="translate(45 469)">
        <g id="Group_11" data-name="Group 11">
          <g id="Group_10" data-name="Group 10">
            <path id="Path_14" data-name="Path 14" class="cls-12" d="M255.119,210.541l.977,3.007a.509.509,0,0,0,.484.352h3.163a.51.51,0,0,1,.3.922l-2.558,1.859a.51.51,0,0,0-.185.57l.977,3.007a.51.51,0,0,1-.784.57l-2.558-1.859a.509.509,0,0,0-.6,0l-2.559,1.859a.51.51,0,0,1-.784-.57l.977-3.007a.508.508,0,0,0-.185-.57l-2.558-1.859a.51.51,0,0,1,.3-.922h3.163a.509.509,0,0,0,.484-.352l.977-3.007A.51.51,0,0,1,255.119,210.541Z"/>
            <path id="Path_15" data-name="Path 15" class="cls-12" d="M272.665,210.541l.977,3.007a.509.509,0,0,0,.485.352h3.162a.51.51,0,0,1,.3.922l-2.559,1.859a.51.51,0,0,0-.185.57l.977,3.007a.509.509,0,0,1-.784.57l-2.558-1.859a.509.509,0,0,0-.6,0l-2.559,1.859a.51.51,0,0,1-.784-.57l.977-3.007a.508.508,0,0,0-.185-.57l-2.558-1.859a.51.51,0,0,1,.3-.922h3.163a.508.508,0,0,0,.484-.352l.978-3.007A.509.509,0,0,1,272.665,210.541Z"/>
            <path id="Path_16" data-name="Path 16" class="cls-12" d="M290.211,210.541l.977,3.007a.509.509,0,0,0,.485.352h3.162a.51.51,0,0,1,.3.922l-2.559,1.859a.511.511,0,0,0-.185.57l.977,3.007a.509.509,0,0,1-.784.57l-2.558-1.859a.509.509,0,0,0-.6,0l-2.559,1.859a.51.51,0,0,1-.784-.57l.978-3.007a.511.511,0,0,0-.185-.57l-2.559-1.859a.51.51,0,0,1,.3-.922h3.162a.51.51,0,0,0,.485-.352l.977-3.007A.509.509,0,0,1,290.211,210.541Z"/>
            <path id="Path_17" data-name="Path 17" class="cls-12" d="M307.757,210.541l.977,3.007a.51.51,0,0,0,.485.352h3.162a.51.51,0,0,1,.3.922l-2.559,1.859a.511.511,0,0,0-.185.57l.978,3.007a.51.51,0,0,1-.784.57l-2.559-1.859a.509.509,0,0,0-.6,0l-2.558,1.859a.509.509,0,0,1-.784-.57l.977-3.007a.511.511,0,0,0-.185-.57l-2.559-1.859a.51.51,0,0,1,.3-.922h3.162a.51.51,0,0,0,.485-.352l.977-3.007A.509.509,0,0,1,307.757,210.541Z"/>
            <path id="Path_18" data-name="Path 18" class="cls-13" d="M325.3,210.541l.978,3.007a.508.508,0,0,0,.484.352h3.163a.51.51,0,0,1,.3.922l-2.558,1.859a.51.51,0,0,0-.186.57l.978,3.007a.51.51,0,0,1-.784.57l-2.559-1.859a.509.509,0,0,0-.6,0l-2.558,1.859a.509.509,0,0,1-.784-.57l.977-3.007a.511.511,0,0,0-.185-.57l-2.559-1.859a.51.51,0,0,1,.3-.922h3.162a.509.509,0,0,0,.485-.352l.977-3.007A.509.509,0,0,1,325.3,210.541Z"/>
          </g>
          <rect id="Rectangle_4" data-name="Rectangle 4" class="cls-13" width="51.024" height="1.417" transform="translate(249.015 225.865)"/>
          <rect id="Rectangle_5" data-name="Rectangle 5" class="cls-5" width="51.024" height="2.671" transform="translate(249.015 202.537)"/>
          <rect id="Rectangle_6" data-name="Rectangle 6" class="cls-13" width="51.024" height="1.417" transform="translate(249.015 231.259)"/>
          <rect id="Rectangle_7" data-name="Rectangle 7" class="cls-13" width="23.323" height="1.417" transform="translate(249.015 236.268)"/>
        </g>
        <g id="Group_17" data-name="Group 17">
          <circle id="Ellipse_1" data-name="Ellipse 1" class="cls-4" cx="20.371" cy="20.371" r="20.371" transform="translate(193.011 204.461) rotate(-13.166)"/>
          <g id="Group_16" data-name="Group 16">
            <g id="Group_15" data-name="Group 15" class="cls-14">
              <g id="Group_14" data-name="Group 14">
                <path id="Path_19" data-name="Path 19" class="cls-7" d="M227.591,231.99,225.8,213.166c0-4.82-1.893-9.254-6.993-7.939h0a6.136,6.136,0,0,0-7.062.867,10.756,10.756,0,0,0-3.138,7.7l-2,18.3Z"/>
                <g id="Group_13" data-name="Group 13">
                  <g id="Group_12" data-name="Group 12">
                    <path id="Path_20" data-name="Path 20" class="cls-15" d="M220.51,222.321v4.144s-.579,3.239-3.306,3.787a4.779,4.779,0,0,1-3.283-3.787v-4.144Z"/>
                  </g>
                  <path id="Path_21" data-name="Path 21" class="cls-16" d="M220.51,221.728v2.638a6.946,6.946,0,0,1-6.589,0v-2.638Z"/>
                </g>
                <path id="Path_22" data-name="Path 22" class="cls-15" d="M223.9,213.388a7.468,7.468,0,0,1-5.012-2.43c-1.845,1.606-8.311,2.43-8.311,2.43l-.044,2.552A11.05,11.05,0,0,0,212.642,222a5.682,5.682,0,0,0,9.147,0,11.05,11.05,0,0,0,2.111-6.058Z"/>
                <path id="Path_23" data-name="Path 23" class="cls-15" d="M233.509,233.356c-2.581-4.439-13.507-6.891-13.507-6.891l-2.873,1.1-2.872-1.1s-10.927,2.452-13.507,6.891l-3.167,23.925,5.025-.078,2.942-19.975s1.858,6.452,1.755,10.22a83.325,83.325,0,0,1-1.276,10h22.2a83.328,83.328,0,0,1-1.276-10c-.1-3.768,1.755-10.22,1.755-10.22l2.942,19.975,5.024.078Z"/>
                <path id="Path_24" data-name="Path 24" class="cls-5" d="M213.68,231.55"/>
                <path id="Path_25" data-name="Path 25" class="cls-5" d="M225.983,228.324a9.2,9.2,0,0,1-17.647-.024,25.677,25.677,0,0,0-4.861,2.424l1.963,6.5c.032.049.058.114.087.17l.025-.17s.082.285.206.755c.022.071.041.148.06.225a40.08,40.08,0,0,1,1.489,9.24,83.325,83.325,0,0,1-1.276,10h22.2a83.328,83.328,0,0,1-1.276-10c-.1-3.768,1.755-10.22,1.755-10.22l.04.276a2.37,2.37,0,0,1,.141-.276l1.951-6.466A25.406,25.406,0,0,0,225.983,228.324Z"/>
              </g>
            </g>
          </g>
        </g>
      </g>
      <path id="Path_4-2" data-name="Path 4" class="cls-15" d="M358.12,252.112a2,2,0,0,1-1.727-1.065l-10.438-20.778s-1.249-4.995-2.718-4.995l-.147,6.612,7.06,25.544c.409,1.6,1.242,2.96,3.372,3.01a94.3,94.3,0,0,1,17.443,2.848,19.134,19.134,0,0,0,9.74-.033C381.035,251.575,362.568,252.21,358.12,252.112Z" transform="translate(45 469)"/>
      <g id="Group_6-2" data-name="Group 6" transform="translate(45 469)">
        <g id="Group_21" data-name="Group 21">
          <g id="Group_20" data-name="Group 20">
            <path id="Path_27" data-name="Path 27" class="cls-15" d="M373.739,249.5v5.907h-8.968V252.08s-5.9-1.392-5.61-6.716,2.785-7.9,4.136-8.313,7.862,2.212,7.985,2.539.819,5.979.819,5.979Z"/>
            <path id="Path_28" data-name="Path 28" class="cls-17" d="M364.321,241.433s1.59-2.242,3.07-1.132.741,3.333-1.11,4.443c0,0,1.851,6.295,5.554,5.924a9.691,9.691,0,0,0,8.047-10.381c-.41-6.1-8.377-10.4-12.735-9.542C362.765,231.6,358.465,236.478,364.321,241.433Z"/>
            <path id="Path_29" data-name="Path 29" class="cls-17" d="M379.841,236.437s4.832-6.142,9.664-.819,7.862,11.3,10.073,12.449-1.883,3.931-7.207,2.211S380.168,242.006,379.841,236.437Z"/>
            <path id="Path_30" data-name="Path 30" class="cls-18" d="M364.771,255.407V252.08s3.666.144,5.225-1.276c0,0-1.093,2.537-3.491,2.607v2Z"/>
          </g>
          <path id="Path_31" data-name="Path 31" class="cls-19" d="M360.833,302.659s2.112,33.034,4.8,39.949,19.7,38.367,19.7,38.367l8.81-1.94-12.566-37.58c-.1,2.305-1.765-8.53,1.344-19.494a27.347,27.347,0,0,0-1.606-19.065l-22.017-.237"/>
          <path id="Path_32" data-name="Path 32" class="cls-5" d="M381.143,301.267s-.825,9.178-11.38,19.59c-10.659,10.515-14.836,17.573-14.836,17.573l-1.585,45.518h-8.786s-5.186-47.967-5.042-49.7,14.693-32.986,16.421-35.723S381.143,301.267,381.143,301.267Z"/>
          <path id="Path_33" data-name="Path 33" class="cls-20" d="M374.661,254.932s9.424.7,5.954,12.388c-3.793,12.772.554,33.242,1.418,35.355l-2.824,1.125a35.167,35.167,0,0,1-26.155-.565h0s7.491-16.517,2.161-25.159c-3.428-5.559-2.417-11.169,1.584-16.134,2.593-3.216,5.862-6.568,7.154-6.628Z"/>
          <path id="Path_34" data-name="Path 34" class="cls-6" d="M344.558,383.951h1.857L342.654,334.6c.621-1.028,2.772-4.97,9.292-17.523a67.81,67.81,0,0,0,5-12.458,33.609,33.609,0,0,1-3.5-1.223c-4.657,9.566-13.815,29.488-13.929,30.857C339.367,335.978,344.558,383.951,344.558,383.951Z"/>
          <path id="Path_35" data-name="Path 35" class="cls-21" d="M362.8,274.968c-4.4,1.63-1.131,13.324-5.864,29.649a35.047,35.047,0,0,1-3.887-1.382h0s7.491-16.517,2.161-25.159a12.681,12.681,0,0,1-2-8.172l18.681-4.246S368.79,272.751,362.8,274.968Z"/>
          <path id="Path_36" data-name="Path 36" class="cls-15" d="M322.538,245.709s17.1,28.42,22.091,30.035c2.219.718,16.047-4.683,21.882-5.642a6.091,6.091,0,0,0,5.078-6.566h0c-.334-3.647-4.518-6.749-8.1-5.964l-19.2,5.981s-16.255-16.809-19.875-20.651c0,0-1.5-4.729-3.732-4.729C318.7,238.173,321.725,244.084,322.538,245.709Z"/>
          <path id="Path_37" data-name="Path 37" class="cls-17" d="M336.175,386.859c2.425-.789,6.96-1.749,8.6-2.9h8.533c-.084,1.71-.13,3.372-.153,4.477a1.361,1.361,0,0,1-1.363,1.333H334.8a1.1,1.1,0,0,1-.57-2.037A9,9,0,0,1,336.175,386.859Z"/>
          <path id="Path_38" data-name="Path 38" class="cls-17" d="M377.787,385.755c2.183-1.316,6.384-3.277,7.722-4.774l8.313-1.929c.3,1.685.636,3.314.863,4.4a1.362,1.362,0,0,1-1.027,1.606l-16.549,3.84a1.1,1.1,0,0,1-1.016-1.855A9.017,9.017,0,0,1,377.787,385.755Z"/>
          <path id="Path_39" data-name="Path 39" class="cls-22" d="M344.632,266.035c4.02.1,22-6.647,26.779-3.425-.882-3.224-4.648-5.755-7.918-5.038l-19.2,5.981s-16.255-16.809-19.875-20.651C324.422,242.9,340.261,265.928,344.632,266.035Z"/>
        </g>
        <path id="Path_40" data-name="Path 40" class="cls-9" d="M379.712,236.073l-1.255.226a9.039,9.039,0,0,1,1.284,5.1l1.623-.3S381.193,236.6,379.712,236.073Z"/>
      </g>
      <g id="Group_7-2" data-name="Group 7" transform="translate(45 469)">
        <rect id="Rectangle_8" data-name="Rectangle 8" class="cls-9" width="158.65" height="50.237" rx="7.292" transform="translate(115.688 255.663)"/>
        <g id="Group_27" data-name="Group 27">
          <g id="Group_25" data-name="Group 25">
            <g id="Group_24" data-name="Group 24">
              <path id="Path_41" data-name="Path 41" class="cls-12" d="M185.773,272.421l.978,3.008a.508.508,0,0,0,.484.352H190.4a.51.51,0,0,1,.3.922l-2.558,1.859a.506.506,0,0,0-.185.569l.977,3.008a.51.51,0,0,1-.784.57l-2.559-1.859a.509.509,0,0,0-.6,0l-2.558,1.859a.51.51,0,0,1-.784-.57l.977-3.008a.509.509,0,0,0-.185-.569L179.88,276.7a.51.51,0,0,1,.3-.922h3.162a.509.509,0,0,0,.485-.352l.977-3.008A.51.51,0,0,1,185.773,272.421Z"/>
              <path id="Path_42" data-name="Path 42" class="cls-12" d="M203.32,272.421l.977,3.008a.509.509,0,0,0,.484.352h3.163a.51.51,0,0,1,.3.922l-2.558,1.859a.506.506,0,0,0-.185.569l.977,3.008a.51.51,0,0,1-.784.57l-2.559-1.859a.509.509,0,0,0-.6,0l-2.558,1.859a.51.51,0,0,1-.784-.57l.977-3.008a.508.508,0,0,0-.185-.569l-2.558-1.859a.509.509,0,0,1,.3-.922h3.162a.509.509,0,0,0,.485-.352l.977-3.008A.51.51,0,0,1,203.32,272.421Z"/>
              <path id="Path_43" data-name="Path 43" class="cls-12" d="M220.866,272.421l.977,3.008a.509.509,0,0,0,.484.352h3.163a.509.509,0,0,1,.3.922l-2.558,1.859a.508.508,0,0,0-.185.569l.977,3.008a.51.51,0,0,1-.784.57l-2.558-1.859a.509.509,0,0,0-.6,0l-2.559,1.859a.51.51,0,0,1-.784-.57l.977-3.008a.506.506,0,0,0-.185-.569l-2.558-1.859a.51.51,0,0,1,.3-.922h3.163a.509.509,0,0,0,.484-.352l.978-3.008A.51.51,0,0,1,220.866,272.421Z"/>
              <path id="Path_44" data-name="Path 44" class="cls-12" d="M238.412,272.421l.977,3.008a.509.509,0,0,0,.485.352h3.162a.51.51,0,0,1,.3.922l-2.559,1.859a.509.509,0,0,0-.185.569l.977,3.008a.51.51,0,0,1-.784.57l-2.558-1.859a.509.509,0,0,0-.6,0l-2.559,1.859a.51.51,0,0,1-.784-.57l.978-3.008a.508.508,0,0,0-.186-.569l-2.558-1.859a.51.51,0,0,1,.3-.922h3.163a.508.508,0,0,0,.484-.352l.978-3.008A.51.51,0,0,1,238.412,272.421Z"/>
              <path id="Path_45" data-name="Path 45" class="cls-12" d="M255.958,272.421l.977,3.008a.509.509,0,0,0,.485.352h3.162a.51.51,0,0,1,.3.922l-2.559,1.859a.509.509,0,0,0-.185.569l.977,3.008a.51.51,0,0,1-.784.57l-2.558-1.859a.509.509,0,0,0-.6,0l-2.559,1.859a.51.51,0,0,1-.784-.57l.978-3.008a.509.509,0,0,0-.185-.569l-2.559-1.859a.51.51,0,0,1,.3-.922h3.162a.51.51,0,0,0,.485-.352l.977-3.008A.51.51,0,0,1,255.958,272.421Z"/>
            </g>
            <rect id="Rectangle_9" data-name="Rectangle 9" class="cls-13" width="51.024" height="1.417" transform="translate(179.669 287.745)"/>
            <rect id="Rectangle_10" data-name="Rectangle 10" class="cls-7" width="51.024" height="2.671" transform="translate(179.669 264.418)"/>
            <rect id="Rectangle_11" data-name="Rectangle 11" class="cls-13" width="51.024" height="1.417" transform="translate(179.669 293.14)"/>
            <rect id="Rectangle_12" data-name="Rectangle 12" class="cls-13" width="23.323" height="1.417" transform="translate(179.669 298.149)"/>
          </g>
          <g id="Group_26" data-name="Group 26">
            <circle id="Ellipse_3" data-name="Ellipse 3" class="cls-4" cx="20.371" cy="20.371" r="20.371" transform="translate(119.332 281.538) rotate(-45)"/>
          </g>
        </g>
      </g>
      <g id="Group_8" data-name="Group 8" transform="translate(45 469)">
        <g id="Group_30" data-name="Group 30">
          <path id="Path_46" data-name="Path 46" class="cls-23" d="M104.641,359.354s34.545-28.948,40.623-18.712-2.879,43.342-2.879,43.342Z"/>
          <path id="Path_47" data-name="Path 47" class="cls-19" d="M122.77,371.184l19.615,12.8s8.187-30.283,3.577-41.872C148.07,357.353,131.9,367.005,122.77,371.184Z"/>
          <g id="Group_29" data-name="Group 29">
            <path id="Path_48" data-name="Path 48" class="cls-5" d="M122.34,356.262s21.394,17.168,23.137,23.35c2.826,10.023-13.928,8.9-21.164,8.9s-53.356-1.276-53.356-1.276l.418-7.094,42.542-2.026s-23.564-3.492-22.691-17.093S122.34,356.262,122.34,356.262Z"/>
            <path id="Path_49" data-name="Path 49" class="cls-23" d="M144.318,385.283c-3.9,3.856-14.6,3.229-20,3.229-7.24,0-53.36-1.272-53.36-1.272l.424-7.1,42.543-2.024s16.948,8.156,30.059,7.2C144.1,385.311,144.212,385.3,144.318,385.283Z"/>
            <path id="Path_50" data-name="Path 50" class="cls-17" d="M71.175,387.116s-1.88,4.238-.44,7.037-4.8.76-5.8-4.758-.52-12.115,6.438-9.157Z"/>
          </g>
        </g>
        <path id="Path_51" data-name="Path 51" class="cls-7" d="M95.151,313.719s15.531-44.879,15.994-44.674a36.867,36.867,0,0,0,5.011,1.546l-6.4,49.259Z"/>
        <path id="Path_52" data-name="Path 52" class="cls-8" d="M111.2,308.6c-3.533-1.671-7.943-3.626-13.115-3.306-2.131,6.112-2.932,8.423-2.932,8.423l14.608,6.131Z"/>
        <g id="Group_31" data-name="Group 31">
          <path id="Path_53" data-name="Path 53" class="cls-15" d="M114.6,301.851c-1.146,4.236-5.693,3.447-5.693,3.447v4.031h-7.844V303.88c.009,0,.028.009.037.009,4.078.94,8.5-2.02,6.548-3.476s-2.367-3.852-1.352-5.026,3.476-.3,3.476-.3a12.4,12.4,0,0,0,5.007-.883A19.352,19.352,0,0,1,114.6,301.851Z"/>
          <path id="Path_54" data-name="Path 54" class="cls-17" d="M109.762,295.087s-2.448-.878-3.467.3-.6,3.582,1.351,5.032-2.478,4.411-6.554,3.471-6.351-9.448-2.854-14.984c3.211-5.084,14.5-7.293,16.768-1.963S117.414,294.879,109.762,295.087Z"/>
          <path id="Path_55" data-name="Path 55" class="cls-16" d="M108.9,309.329V305.3a16.008,16.008,0,0,1-3.676-.9,9.076,9.076,0,0,0,2.3,2.045v2.885Z"/>
        </g>
        <path id="Path_56" data-name="Path 56" class="cls-7" d="M111,309.406s-12.964-4.49-16.613,5.617,2.552,34.335-4.058,42.652h0a41.713,41.713,0,0,0,32.486,1.18l1.42-.541s-4.531-30.9-4.748-29.827c-.184.906,15.3,5.842,18.392,4.158s21.781-22.791,21.781-22.791l-6.291-.933L136.521,320.01S115.26,309.685,111,309.406Z"/>
        <path id="Path_57" data-name="Path 57" class="cls-15" d="M159.658,309.854s6.477-2.8,6.877-4.078H157.2a3.032,3.032,0,0,0-2.452,1.247l-1.384,1.9Z"/>
        <path id="Path_58" data-name="Path 58" class="cls-8" d="M124.233,358.314s-3.981-27.148-4.659-29.667a1.875,1.875,0,0,0,.384.269l-.473-.429s-9.886-2.4-13.4-6.558c0,0,3.359,6.878,7.677,8.477,3.856,1.428,2.487,22.229,5.452,29.629,1.213-.34,2.417-.728,3.6-1.18Z"/>
        <path id="Path_59" data-name="Path 59" class="cls-15" d="M111.625,269.258s1.648-5.889,4.1-6.3l0,7.689Z"/>
      </g>
      <g id="Group_9" data-name="Group 9" transform="translate(45 469)">
        <g id="Group_37" data-name="Group 37" class="cls-24">
          <path id="Path_60" data-name="Path 60" class="cls-12" d="M170.514,311.378,169.2,299.622a6.519,6.519,0,0,0-2.925-4.655L162.2,292.3l-.018.1v-.092l-3.365-1.3-3.423-1.325-2.835-1.1-1.244-.483-3.12,1.594-3.117-1.594-1.094.425-2.675,1.033-3.617,1.4-3.48,1.349v.055l-3.982,2.6a6.521,6.521,0,0,0-2.924,4.655l-1.313,11.756h8.264l.023,9.78h27.834l.023-9.78Z"/>
          <g id="Group_36" data-name="Group 36">
            <path id="Path_61" data-name="Path 61" class="cls-7" d="M148.326,267.453h0a8.311,8.311,0,0,0-8.312,8.311v3.965h16.623v-3.965A8.311,8.311,0,0,0,148.326,267.453Z"/>
            <g id="Group_34" data-name="Group 34">
              <g id="Group_33" data-name="Group 33">
                <path id="Path_62" data-name="Path 62" class="cls-15" d="M151.621,285.921v2.911s-.016.086-.053.233c-.433,1.714-1.882,5.032-3.3,5s-2.818-3.418-3.144-5.156c-.009-.049-.013-.076-.013-.076v-2.911Z"/>
              </g>
              <path id="Path_63" data-name="Path 63" class="cls-16" d="M151.621,285.335v2.608a6.873,6.873,0,0,1-6.515,0v-2.608Z"/>
            </g>
            <g id="Group_35" data-name="Group 35">
              <path id="Path_64" data-name="Path 64" class="cls-15" d="M143.963,279.765a2.016,2.016,0,1,0-2.016,2.016A2.016,2.016,0,0,0,143.963,279.765Z"/>
              <path id="Path_65" data-name="Path 65" class="cls-15" d="M156.6,279.765a2.017,2.017,0,1,0-2.017,2.016A2.016,2.016,0,0,0,156.6,279.765Z"/>
            </g>
            <path id="Path_66" data-name="Path 66" class="cls-15" d="M154.97,276.344a14.074,14.074,0,0,1-3.348-2.395h-6.545c-.525,1.481-3.266,2.395-3.266,2.395l-.056,3.268a10.92,10.92,0,0,0,2.087,5.99,5.483,5.483,0,0,0,1.982,1.683,5.651,5.651,0,0,0,2.538.6,5.575,5.575,0,0,0,4.523-2.284,10.912,10.912,0,0,0,2.087-5.99Z"/>
          </g>
        </g>
      </g>
      <g id="Group_10-2" data-name="Group 10" transform="translate(45 469)">
        <rect id="Rectangle_13" data-name="Rectangle 13" class="cls-9" width="158.65" height="50.237" rx="7.292" transform="translate(185.033 317.174)"/>
        <g id="Group_42" data-name="Group 42">
          <g id="Group_41" data-name="Group 41">
            <g id="Group_40" data-name="Group 40">
              <path id="Path_67" data-name="Path 67" class="cls-12" d="M255.119,333.932l.977,3.008a.509.509,0,0,0,.484.352h3.163a.51.51,0,0,1,.3.922l-2.558,1.859a.508.508,0,0,0-.185.569l.977,3.008a.51.51,0,0,1-.784.57l-2.558-1.859a.509.509,0,0,0-.6,0l-2.559,1.859a.51.51,0,0,1-.784-.57l.977-3.008a.506.506,0,0,0-.185-.569l-2.558-1.859a.51.51,0,0,1,.3-.922h3.163a.509.509,0,0,0,.484-.352l.977-3.008A.51.51,0,0,1,255.119,333.932Z"/>
              <path id="Path_68" data-name="Path 68" class="cls-12" d="M272.665,333.932l.977,3.008a.509.509,0,0,0,.485.352h3.162a.51.51,0,0,1,.3.922l-2.559,1.859a.508.508,0,0,0-.185.569l.977,3.008a.51.51,0,0,1-.784.57l-2.558-1.859a.509.509,0,0,0-.6,0l-2.559,1.859a.51.51,0,0,1-.784-.57l.977-3.008a.506.506,0,0,0-.185-.569l-2.558-1.859a.51.51,0,0,1,.3-.922h3.163a.508.508,0,0,0,.484-.352l.978-3.008A.51.51,0,0,1,272.665,333.932Z"/>
              <path id="Path_69" data-name="Path 69" class="cls-13" d="M290.211,333.932l.977,3.008a.509.509,0,0,0,.485.352h3.162a.51.51,0,0,1,.3.922l-2.559,1.859a.509.509,0,0,0-.185.569l.977,3.008a.51.51,0,0,1-.784.57l-2.558-1.859a.509.509,0,0,0-.6,0l-2.559,1.859a.51.51,0,0,1-.784-.57l.978-3.008a.509.509,0,0,0-.185-.569l-2.559-1.859a.51.51,0,0,1,.3-.922h3.162a.51.51,0,0,0,.485-.352l.977-3.008A.51.51,0,0,1,290.211,333.932Z"/>
              <path id="Path_70" data-name="Path 70" class="cls-12" d="M289.645,333.605a.48.48,0,0,0-.4.327l-.977,3.008a.51.51,0,0,1-.485.352h-3.162a.51.51,0,0,0-.3.922l2.558,1.859a.508.508,0,0,1,.186.569l-.978,3.008a.51.51,0,0,0,.784.57l2.559-1.859a.5.5,0,0,1,.218-.071Z"/>
              <path id="Path_71" data-name="Path 71" class="cls-13" d="M307.757,333.932l.977,3.008a.51.51,0,0,0,.485.352h3.162a.51.51,0,0,1,.3.922l-2.559,1.859a.509.509,0,0,0-.185.569l.978,3.008a.51.51,0,0,1-.784.57l-2.559-1.859a.509.509,0,0,0-.6,0l-2.558,1.859a.51.51,0,0,1-.784-.57l.977-3.008a.509.509,0,0,0-.185-.569l-2.559-1.859a.51.51,0,0,1,.3-.922h3.162a.51.51,0,0,0,.485-.352l.977-3.008A.51.51,0,0,1,307.757,333.932Z"/>
              <path id="Path_72" data-name="Path 72" class="cls-13" d="M325.3,333.932l.978,3.008a.508.508,0,0,0,.484.352h3.163a.51.51,0,0,1,.3.922l-2.558,1.859a.508.508,0,0,0-.186.569l.978,3.008a.51.51,0,0,1-.784.57l-2.559-1.859a.509.509,0,0,0-.6,0l-2.558,1.859a.51.51,0,0,1-.784-.57l.977-3.008a.509.509,0,0,0-.185-.569l-2.559-1.859a.51.51,0,0,1,.3-.922h3.162a.509.509,0,0,0,.485-.352l.977-3.008A.51.51,0,0,1,325.3,333.932Z"/>
            </g>
            <rect id="Rectangle_14" data-name="Rectangle 14" class="cls-13" width="51.024" height="1.417" transform="translate(249.015 349.256)"/>
            <rect id="Rectangle_15" data-name="Rectangle 15" class="cls-25" width="51.024" height="2.671" transform="translate(249.015 325.928)"/>
            <rect id="Rectangle_16" data-name="Rectangle 16" class="cls-13" width="51.024" height="1.417" transform="translate(249.015 354.651)"/>
            <rect id="Rectangle_17" data-name="Rectangle 17" class="cls-13" width="23.323" height="1.417" transform="translate(249.015 359.66)"/>
          </g>
        </g>
      </g>
      <g id="Group_11-2" data-name="Group 11" transform="translate(45 469)">
        <circle id="Ellipse_5" data-name="Ellipse 5" class="cls-4" cx="20.371" cy="20.371" r="20.371" transform="matrix(0.522, -0.853, 0.853, 0.522, 189.476, 349.22)"/>
        <g id="Group_48" data-name="Group 48">
          <g id="Group_47" data-name="Group 47" class="cls-26">
            <g id="Group_46" data-name="Group 46">
              <path id="Path_73" data-name="Path 73" class="cls-7" d="M209.281,338.119s-1.162-4.619.639-6.652,5.374-4.183,8.279-3.079a4.754,4.754,0,0,1,4.387-.233c2.091,1.162,5.112,2.179,5.432.785,0,0,.174,5.316-2.208,6.158l-.988,4.1h-15.25Z"/>
              <path id="Path_74" data-name="Path 74" class="cls-7" d="M233.509,356.186c-2.581-4.439-13.507-6.892-13.507-6.892l-2.873,1.1-2.872-1.1s-10.927,2.453-13.507,6.892l-3.167,23.925,5.025-.078,2.942-19.976s1.858,6.452,1.755,10.22a83.325,83.325,0,0,1-1.276,10h22.2a83.328,83.328,0,0,1-1.276-10c-.1-3.768,1.755-10.22,1.755-10.22l2.942,19.976,5.024.078Z"/>
              <path id="Path_75" data-name="Path 75" class="cls-5" d="M213.68,354.379"/>
              <g id="Group_45" data-name="Group 45">
                <g id="Group_44" data-name="Group 44">
                  <path id="Path_76" data-name="Path 76" class="cls-15" d="M220.51,345.15v4.144s-.579,3.24-3.306,3.787a4.779,4.779,0,0,1-3.283-3.787V345.15Z"/>
                </g>
                <path id="Path_77" data-name="Path 77" class="cls-16" d="M220.51,344.557V347.2a6.946,6.946,0,0,1-6.589,0v-2.638Z"/>
              </g>
              <path id="Path_78" data-name="Path 78" class="cls-15" d="M223.9,336.217a7.463,7.463,0,0,1-5.012-2.43c-1.845,1.606-8.311,2.43-8.311,2.43l-.044,2.552a11.048,11.048,0,0,0,2.111,6.058,5.682,5.682,0,0,0,9.147,0,11.048,11.048,0,0,0,2.111-6.058Z"/>
              <path id="Path_79" data-name="Path 79" class="cls-15" d="M212.273,339.078a1.83,1.83,0,1,1-1.83-1.83A1.83,1.83,0,0,1,212.273,339.078Z"/>
              <path id="Path_80" data-name="Path 80" class="cls-15" d="M225.76,339.078a1.83,1.83,0,1,1-1.83-1.83A1.831,1.831,0,0,1,225.76,339.078Z"/>
            </g>
          </g>
        </g>
      </g>
      <g id="Group_12-2" data-name="Group 12" transform="translate(45 469)">
        <g id="Group_53" data-name="Group 53">
          <path id="Path_85" data-name="Path 85" class="cls-5" d="M416.682,367.451l1.481-.495c.214-2.56-.885-6.869-6.692-13.518-10.747-12.306-19.963-29.841-17.635-36.68,0,0-10.512,15.826-3.42,26.27C397.073,352.831,414.765,354.935,416.682,367.451Z"/>
          <path id="Path_86" data-name="Path 86" class="cls-19" d="M417.285,367.249l.879-.293c.215-2.559-.885-6.868-6.693-13.518-10.747-12.306-19.963-29.841-17.635-36.68,0,0-5.567,14.542,1.653,24.279C402.618,350.649,415.334,352.648,417.285,367.249Z"/>
        </g>
        <g id="Group_55" data-name="Group 55">
          <path id="Path_87" data-name="Path 87" class="cls-5" d="M420.986,356.933a30.672,30.672,0,0,1-2,6.132l.684.119c3.15-4.246,8.32-12.651,9.465-23.315,1.675-15.584,3.938-35.091,3.938-35.091s-15.864,13.089-12.312,31.278C422.528,345.125,422.066,352.032,420.986,356.933Z"/>
          <g id="Group_54" data-name="Group 54">
            <path id="Path_88" data-name="Path 88" class="cls-19" d="M426.567,328.617c-.867,13-3.32,27.308-6.5,32.989.463-.355.956-.728,1.46-1.106a48.005,48.005,0,0,0,7.6-20.631c1.675-15.584,3.938-35.091,3.938-35.091S427.7,311.692,426.567,328.617Z"/>
          </g>
        </g>
        <g id="Group_57" data-name="Group 57">
          <path id="Path_89" data-name="Path 89" class="cls-5" d="M423.829,362.981a23.653,23.653,0,0,1-3.619,3.39l.417.332a37.785,37.785,0,0,0,15-12.208c6.894-9.875,15.636-22.174,15.636-22.174s-15.534,2.966-19.869,16.52A39.309,39.309,0,0,1,423.829,362.981Z"/>
          <g id="Group_56" data-name="Group 56">
            <path id="Path_90" data-name="Path 90" class="cls-19" d="M438.066,345.974c-5.4,8.436-12.34,17.162-16.584,19.814.443-.069.913-.138,1.392-.206a36.966,36.966,0,0,0,12.758-11.087c6.894-9.875,15.636-22.174,15.636-22.174S445.089,334.995,438.066,345.974Z"/>
          </g>
        </g>
        <g id="Group_58" data-name="Group 58">
          <path id="Path_91" data-name="Path 91" class="cls-5" d="M417.881,362.5c.974,2.775,1.687,4.681,2.106,6l.561-.128c-.912-4.874-2.491-13.291-3.98-18.816-2.191-8.137-.484-12.087-2.248-26.249s-10.16-32.86-10.16-32.86-5.423,19.735,2.329,38.556S413.587,350.27,417.881,362.5Z"/>
          <path id="Path_92" data-name="Path 92" class="cls-19" d="M420.022,368.494l.107-.025.063-1.991c-.934-4.957-2.314-12.059-3.624-16.92-2.191-8.137-.484-12.087-2.248-26.249s-10.16-32.86-10.16-32.86,2.637,28.125,6.485,40.419C414.206,342.242,419.283,365.135,420.022,368.494Z"/>
        </g>
      </g>
      <g id="Group_13-2" data-name="Group 13" transform="translate(45 469)">
        <path id="Path_93" data-name="Path 93" class="cls-9" d="M403.976,365.648l3.4,20.116a3.9,3.9,0,0,0,3.842,3.247h19.651a3.9,3.9,0,0,0,3.842-3.247l3.4-20.116a2.98,2.98,0,0,0-2.938-3.477H406.914A2.98,2.98,0,0,0,403.976,365.648Z"/>
        <path id="Path_94" data-name="Path 94" class="cls-10" d="M438.089,364.631v-.005a2.9,2.9,0,0,0-.154-.549l-.015-.038a3.064,3.064,0,0,0-.238-.467c-.018-.029-.038-.055-.057-.083a2.9,2.9,0,0,0-.287-.367c-.04-.044-.085-.082-.129-.123a2.847,2.847,0,0,0-.3-.259c-.072-.053-.152-.1-.229-.141a3,3,0,0,0-.282-.159,2.849,2.849,0,0,0-.354-.123c-.077-.024-.15-.056-.23-.074a2.936,2.936,0,0,0-.642-.072H406.914a2.969,2.969,0,0,0-2.962,3.062h25.234a2.909,2.909,0,0,1-.023.415l-3.4,20.116a3.9,3.9,0,0,1-3.843,3.247h8.947a3.9,3.9,0,0,0,3.842-3.247l3.4-20.116A2.934,2.934,0,0,0,438.089,364.631Z"/>
      </g>
      <g id="Group_14-2" data-name="Group 14" transform="translate(45 469)">
        <path id="Path_95" data-name="Path 95" class="cls-7" d="M144.467,218.945H100.1a5.763,5.763,0,0,0-5.762,5.763v34.859l11.284-10.222a4.985,4.985,0,0,1,3.348-1.291h35.5a3.957,3.957,0,0,0,3.956-3.957V222.9A3.957,3.957,0,0,0,144.467,218.945Z"/>
        <g id="Group_62" data-name="Group 62">
          <path id="Path_96" data-name="Path 96" class="cls-25" d="M129.273,227.888a4.914,4.914,0,0,0-6.949,0l-.653.653-.654-.653a4.914,4.914,0,0,0-6.949,6.949l.653.653,6.95,6.95,6.949-6.95.653-.653a4.917,4.917,0,0,0,0-6.949Z"/>
        </g>
      </g>
      <g id="Group_15-2" data-name="Group 15" transform="translate(45 469)">
        <path id="Path_97" data-name="Path 97" class="cls-7" d="M408.3,171.9h-44.63a5.8,5.8,0,0,0-5.8,5.8V212.76l11.35-10.282a5.015,5.015,0,0,1,3.367-1.3H408.3a3.98,3.98,0,0,0,3.979-3.98V175.881A3.979,3.979,0,0,0,408.3,171.9Z"/>
        <g id="Group_65" data-name="Group 65">
          <path id="Path_98" data-name="Path 98" class="cls-5" d="M397.736,187.825a1.548,1.548,0,0,0-.123-3.091h-3.025a3.092,3.092,0,0,0-.464-.033,8.1,8.1,0,0,1-2.35-.125c-1.318-.284.233-1.886-.589-4.828s-3.684-2.768-3.547-1.4.3,4.645-.466,5.679a6.738,6.738,0,0,1-4.524,2.554l-.057,7.792,3.061.022a7.443,7.443,0,0,0,4.251,1.946v.028h5.829a1.417,1.417,0,0,0,.886-2.524,1.547,1.547,0,0,0,.378-3.016h.227a1.548,1.548,0,0,0,1.548-1.549h0A1.546,1.546,0,0,0,397.736,187.825Z"/>
          <g id="Group_64" data-name="Group 64">
            <path id="Path_99" data-name="Path 99" class="cls-5" d="M374.027,195.841l5.245.005.065-11.38-5.245-.005Z"/>
          </g>
        </g>
      </g>
      <g id="Group_16-2" data-name="Group 16" transform="translate(45 469)">
        <path id="Path_100" data-name="Path 100" class="cls-7" d="M306.385,299.167a14.379,14.379,0,0,1-1.9-7.4,14.451,14.451,0,1,1,9.349,13.758,4.435,4.435,0,0,0-2.849-.1l-5.624,1.7,1.374-4.548A4.349,4.349,0,0,0,306.385,299.167Z"/>
        <g id="Group_67" data-name="Group 67">
          <path id="Path_101" data-name="Path 101" class="cls-12" d="M318.624,284.2l-1.488,4.579a.623.623,0,0,1-.594.432h-4.815a.625.625,0,0,0-.367,1.131l3.9,2.83a.625.625,0,0,1,.227.7l-1.488,4.579a.625.625,0,0,0,.962.7l3.9-2.83a.626.626,0,0,1,.735,0l3.895,2.83a.625.625,0,0,0,.962-.7l-1.487-4.579a.625.625,0,0,1,.227-.7l3.895-2.83a.625.625,0,0,0-.368-1.131H321.9a.625.625,0,0,1-.6-.432l-1.488-4.579A.625.625,0,0,0,318.624,284.2Z"/>
        </g>
      </g>
    </g>
  </g>
</svg>
